<svg xmlns="http://www.w3.org/2000/svg" xmlns:xlink="http://www.w3.org/1999/xlink" xmlns:lucid="lucid" width="876" height="762"><g transform="translate(1198.0008680555554 621)" lucid:page-tab-id="0_0"><path d="M-1160-620h300v178h-300z" stroke="#333" stroke-width="2" fill="#fff"/><path d="M-1160-561.24h300" stroke="#333" stroke-width="2" fill="none"/><use xlink:href="#a" transform="matrix(1,0,0,1,-1152,-612) translate(96.58802734375 18.138740234375)"/><use xlink:href="#b" transform="matrix(1,0,0,1,-1152,-612) translate(78.6814404296875 38.842138671875006)"/><path d="M-1197-334a6 6 0 0 1 6-6h362a6 6 0 0 1 6 6v468a6 6 0 0 1-6 6h-362a6 6 0 0 1-6-6z" stroke="#000" stroke-width="2" fill="#fff"/><path d="M-1197-297.1h374m-374 373.05h374" stroke="#000" stroke-width="2" fill="none"/><use xlink:href="#c" transform="matrix(1,0,0,1,-1189.0008680555554,-332) translate(144.13216145833334 21.58376736111111)"/><use xlink:href="#d" transform="matrix(1,0,0,1,-1185.0008680555554,-289.1119791666667) translate(0 31.885416666666668)"/><use xlink:href="#e" transform="matrix(1,0,0,1,-1185.0008680555554,-289.1119791666667) translate(52.54166666666667 31.885416666666668)"/><use xlink:href="#f" transform="matrix(1,0,0,1,-1185.0008680555554,-289.1119791666667) translate(64.6875 31.885416666666668)"/><use xlink:href="#g" transform="matrix(1,0,0,1,-1185.0008680555554,-289.1119791666667) translate(0 62.860416666666666)"/><use xlink:href="#e" transform="matrix(1,0,0,1,-1185.0008680555554,-289.1119791666667) translate(74.05208333333334 62.860416666666666)"/><use xlink:href="#f" transform="matrix(1,0,0,1,-1185.0008680555554,-289.1119791666667) translate(86.19791666666669 62.860416666666666)"/><use xlink:href="#h" transform="matrix(1,0,0,1,-1185.0008680555554,-289.1119791666667) translate(0 93.83541666666666)"/><use xlink:href="#e" transform="matrix(1,0,0,1,-1185.0008680555554,-289.1119791666667) translate(66.54166666666667 93.83541666666666)"/><use xlink:href="#i" transform="matrix(1,0,0,1,-1185.0008680555554,-289.1119791666667) translate(78.6875 93.83541666666666)"/><use xlink:href="#j" transform="matrix(1,0,0,1,-1185.0008680555554,-289.1119791666667) translate(0 124.81041666666667)"/><use xlink:href="#e" transform="matrix(1,0,0,1,-1185.0008680555554,-289.1119791666667) translate(136.00000000000003 124.81041666666667)"/><use xlink:href="#f" transform="matrix(1,0,0,1,-1185.0008680555554,-289.1119791666667) translate(148.14583333333337 124.81041666666667)"/><use xlink:href="#k" transform="matrix(1,0,0,1,-1185.0008680555554,-289.1119791666667) translate(0 155.78541666666663)"/><use xlink:href="#l" transform="matrix(1,0,0,1,-1185.0008680555554,-289.1119791666667) translate(133.96875000000003 155.78541666666663)"/><use xlink:href="#e" transform="matrix(1,0,0,1,-1185.0008680555554,-289.1119791666667) translate(176.69791666666669 155.78541666666663)"/><use xlink:href="#m" transform="matrix(1,0,0,1,-1185.0008680555554,-289.1119791666667) translate(188.84375000000003 155.78541666666663)"/><use xlink:href="#k" transform="matrix(1,0,0,1,-1185.0008680555554,-289.1119791666667) translate(0 186.76041666666666)"/><use xlink:href="#n" transform="matrix(1,0,0,1,-1185.0008680555554,-289.1119791666667) translate(133.96875000000003 186.76041666666666)"/><use xlink:href="#e" transform="matrix(1,0,0,1,-1185.0008680555554,-289.1119791666667) translate(198.20833333333337 186.76041666666666)"/><use xlink:href="#m" transform="matrix(1,0,0,1,-1185.0008680555554,-289.1119791666667) translate(210.3541666666667 186.76041666666666)"/><use xlink:href="#k" transform="matrix(1,0,0,1,-1185.0008680555554,-289.1119791666667) translate(0 217.73541666666665)"/><use xlink:href="#o" transform="matrix(1,0,0,1,-1185.0008680555554,-289.1119791666667) translate(133.96875000000003 217.73541666666665)"/><use xlink:href="#e" transform="matrix(1,0,0,1,-1185.0008680555554,-289.1119791666667) translate(260.15625000000006 217.73541666666665)"/><use xlink:href="#m" transform="matrix(1,0,0,1,-1185.0008680555554,-289.1119791666667) translate(272.30208333333337 217.73541666666665)"/><use xlink:href="#p" transform="matrix(1,0,0,1,-1185.0008680555554,-289.1119791666667) translate(0 248.71041666666665)"/><use xlink:href="#l" transform="matrix(1,0,0,1,-1185.0008680555554,-289.1119791666667) translate(135.7916666666667 248.71041666666665)"/><use xlink:href="#e" transform="matrix(1,0,0,1,-1185.0008680555554,-289.1119791666667) translate(178.52083333333337 248.71041666666665)"/><use xlink:href="#f" transform="matrix(1,0,0,1,-1185.0008680555554,-289.1119791666667) translate(190.6666666666667 248.71041666666665)"/><use xlink:href="#p" transform="matrix(1,0,0,1,-1185.0008680555554,-289.1119791666667) translate(0 279.68541666666664)"/><use xlink:href="#n" transform="matrix(1,0,0,1,-1185.0008680555554,-289.1119791666667) translate(135.7916666666667 279.68541666666664)"/><use xlink:href="#e" transform="matrix(1,0,0,1,-1185.0008680555554,-289.1119791666667) translate(200.03125000000006 279.68541666666664)"/><use xlink:href="#f" transform="matrix(1,0,0,1,-1185.0008680555554,-289.1119791666667) translate(212.1770833333334 279.68541666666664)"/><use xlink:href="#p" transform="matrix(1,0,0,1,-1185.0008680555554,-289.1119791666667) translate(0 310.66041666666666)"/><use xlink:href="#q" transform="matrix(1,0,0,1,-1185.0008680555554,-289.1119791666667) translate(135.7916666666667 310.66041666666666)"/><use xlink:href="#e" transform="matrix(1,0,0,1,-1185.0008680555554,-289.1119791666667) translate(192.52083333333337 310.66041666666666)"/><use xlink:href="#i" transform="matrix(1,0,0,1,-1185.0008680555554,-289.1119791666667) translate(204.6666666666667 310.66041666666666)"/><use xlink:href="#p" transform="matrix(1,0,0,1,-1185.0008680555554,-289.1119791666667) translate(0 341.6354166666667)"/><use xlink:href="#o" transform="matrix(1,0,0,1,-1185.0008680555554,-289.1119791666667) translate(135.7916666666667 341.6354166666667)"/><use xlink:href="#e" transform="matrix(1,0,0,1,-1185.0008680555554,-289.1119791666667) translate(261.97916666666674 341.6354166666667)"/><use xlink:href="#r" transform="matrix(1,0,0,1,-1185.0008680555554,-289.1119791666667) translate(274.12500000000006 341.6354166666667)"/><path d="M-660-620h300v178h-300z" stroke="#333" stroke-width="2" fill="#fff"/><path d="M-660-561.24h300" stroke="#333" stroke-width="2" fill="none"/><g><use xlink:href="#s" transform="matrix(1,0,0,1,-652,-612) translate(96.58802734375 18.138740234375)"/><use xlink:href="#t" transform="matrix(1,0,0,1,-652,-612) translate(80.15272949218749 38.842138671875006)"/></g><path d="M-697-334a6 6 0 0 1 6-6h362a6 6 0 0 1 6 6V41a6 6 0 0 1-6 6h-362a6 6 0 0 1-6-6z" stroke="#000" stroke-width="2" fill="#fff"/><path d="M-697-297.1h374M-697-16.98h374" stroke="#000" stroke-width="2" fill="none"/><g><use xlink:href="#u" transform="matrix(1,0,0,1,-689.0008680555555,-332) translate(146.45963541666669 21.58376736111111)"/></g><g><use xlink:href="#d" transform="matrix(1,0,0,1,-685.0008680555555,-289.1119791666667) translate(0 31.847916666666674)"/><use xlink:href="#e" transform="matrix(1,0,0,1,-685.0008680555555,-289.1119791666667) translate(52.54166666666667 31.847916666666674)"/><use xlink:href="#f" transform="matrix(1,0,0,1,-685.0008680555555,-289.1119791666667) translate(64.6875 31.847916666666674)"/><use xlink:href="#v" transform="matrix(1,0,0,1,-685.0008680555555,-289.1119791666667) translate(0 62.82291666666667)"/><use xlink:href="#e" transform="matrix(1,0,0,1,-685.0008680555555,-289.1119791666667) translate(77.32291666666669 62.82291666666667)"/><use xlink:href="#i" transform="matrix(1,0,0,1,-685.0008680555555,-289.1119791666667) translate(89.46875000000003 62.82291666666667)"/><use xlink:href="#h" transform="matrix(1,0,0,1,-685.0008680555555,-289.1119791666667) translate(0 93.79791666666667)"/><use xlink:href="#e" transform="matrix(1,0,0,1,-685.0008680555555,-289.1119791666667) translate(66.54166666666667 93.79791666666667)"/><use xlink:href="#i" transform="matrix(1,0,0,1,-685.0008680555555,-289.1119791666667) translate(78.6875 93.79791666666667)"/><use xlink:href="#k" transform="matrix(1,0,0,1,-685.0008680555555,-289.1119791666667) translate(0 124.77291666666667)"/><use xlink:href="#l" transform="matrix(1,0,0,1,-685.0008680555555,-289.1119791666667) translate(133.96875000000003 124.77291666666667)"/><use xlink:href="#e" transform="matrix(1,0,0,1,-685.0008680555555,-289.1119791666667) translate(176.69791666666669 124.77291666666667)"/><use xlink:href="#m" transform="matrix(1,0,0,1,-685.0008680555555,-289.1119791666667) translate(188.84375000000003 124.77291666666667)"/><use xlink:href="#k" transform="matrix(1,0,0,1,-685.0008680555555,-289.1119791666667) translate(0 155.74791666666667)"/><use xlink:href="#w" transform="matrix(1,0,0,1,-685.0008680555555,-289.1119791666667) translate(133.96875000000003 155.74791666666667)"/><use xlink:href="#e" transform="matrix(1,0,0,1,-685.0008680555555,-289.1119791666667) translate(201.47916666666669 155.74791666666667)"/><use xlink:href="#m" transform="matrix(1,0,0,1,-685.0008680555555,-289.1119791666667) translate(213.62500000000003 155.74791666666667)"/><use xlink:href="#p" transform="matrix(1,0,0,1,-685.0008680555555,-289.1119791666667) translate(0 186.72291666666666)"/><use xlink:href="#l" transform="matrix(1,0,0,1,-685.0008680555555,-289.1119791666667) translate(135.7916666666667 186.72291666666666)"/><use xlink:href="#e" transform="matrix(1,0,0,1,-685.0008680555555,-289.1119791666667) translate(178.52083333333337 186.72291666666666)"/><use xlink:href="#f" transform="matrix(1,0,0,1,-685.0008680555555,-289.1119791666667) translate(190.6666666666667 186.72291666666666)"/><use xlink:href="#p" transform="matrix(1,0,0,1,-685.0008680555555,-289.1119791666667) translate(0 217.69791666666666)"/><use xlink:href="#q" transform="matrix(1,0,0,1,-685.0008680555555,-289.1119791666667) translate(135.7916666666667 217.69791666666666)"/><use xlink:href="#e" transform="matrix(1,0,0,1,-685.0008680555555,-289.1119791666667) translate(192.52083333333337 217.69791666666666)"/><use xlink:href="#i" transform="matrix(1,0,0,1,-685.0008680555555,-289.1119791666667) translate(204.6666666666667 217.69791666666666)"/><use xlink:href="#p" transform="matrix(1,0,0,1,-685.0008680555555,-289.1119791666667) translate(0 248.67291666666665)"/><use xlink:href="#w" transform="matrix(1,0,0,1,-685.0008680555555,-289.1119791666667) translate(135.7916666666667 248.67291666666665)"/><use xlink:href="#e" transform="matrix(1,0,0,1,-685.0008680555555,-289.1119791666667) translate(203.30208333333337 248.67291666666665)"/><use xlink:href="#x" transform="matrix(1,0,0,1,-685.0008680555555,-289.1119791666667) translate(215.4479166666667 248.67291666666665)"/></g><path d="M-1010-341.5v-5.5m0-5.5v-11m0-5.5v-11m0-5.5v-11.42m0-5.92v-11.83m0-5.92v-5.9" stroke="#3a414a" fill="none"/><path d="M-1009.52-341h-.96v-.5h.96z" stroke="#3a414a" stroke-width=".05" fill="#3a414a"/><path d="M-1010-440l7.5 13h-15z" stroke="#3a414a" fill="#fff"/><path d="M-510-341.5v-4.72m0-4.72v-9.45m0-4.7v-9.46m0-4.72v-9.45m0-4.72v-9.45m0-4.72v-9.44m0-4.73v-4.7" stroke="#3a414a" fill="none"/><path d="M-509.52-341h-.96v-.5h.96z" stroke="#3a414a" stroke-width=".05" fill="#3a414a"/><path d="M-510-440l7.5 13h-15z" stroke="#3a414a" fill="#fff"/><defs><path fill="#333" d="M501-144L100-616l401-472h206L313-616l394 472H501zm406 0L506-616l401-472h206L719-616l394 472H907" id="y"/><path fill="#333" d="M158 0v-1118h180V0H158zm91-1301c-68 0-125-53-125-119s57-119 125-119c69 0 126 53 126 119s-57 119-126 119" id="z"/><path fill="#333" d="M338-670V0H158v-1118h173l1 207c72-158 192-221 342-221 226 0 378 139 378 422V0H872v-695c0-172-96-275-252-275-161 0-282 109-282 300" id="A"/><path fill="#333" d="M598-1118v154H368v674c0 100 37 144 132 144 23 0 62-6 92-12L629-6c-37 13-88 20-134 20-193 0-307-107-307-290v-688H20v-154h168v-266h180v266h230" id="B"/><path fill="#333" d="M628 24c-324 0-524-230-524-574 0-343 198-582 503-582 237 0 487 146 487 559v75H286c9 234 145 362 343 362 132 0 231-58 273-172l174 48C1024-91 857 24 628 24zM287-650h624c-17-190-120-322-304-322-192 0-309 151-320 322" id="C"/><path fill="#333" d="M158 0v-1118h174v172h12c41-113 157-188 290-188 26 0 70 2 91 3v181c-11-2-60-10-108-10-161 0-279 109-279 260V0H158" id="D"/><path fill="#333" d="M678-1118v154H420V0H240v-964H20v-154h220v-149c0-194 155-293 318-293 85 0 141 18 168 30l-50 154c-19-6-47-17-97-17-111 0-159 58-159 166v109h258" id="E"/><path fill="#333" d="M471 26C259 26 90-98 90-318c0-256 228-303 435-329 202-27 287-16 287-108 0-139-79-219-234-219-161 0-248 86-283 164l-173-57c86-203 278-265 451-265 150 0 419 46 419 395V0H815v-152h-12C765-73 660 26 471 26zm31-159c199 0 310-134 310-271v-155c-30 35-226 55-295 64-131 17-246 59-246 186 0 116 97 176 231 176" id="F"/><path fill="#333" d="M613 24c-304 0-509-231-509-576 0-350 205-580 509-580 216 0 392 114 453 309l-173 49c-33-115-133-197-280-197-223 0-326 196-326 419 0 220 103 415 326 415 150 0 252-85 285-206l172 49C1010-95 832 24 613 24" id="G"/><path fill="#333" d="M80-144l394-472-394-472h206l401 472-401 472H80zm406 0l394-472-394-472h206l401 472-401 472H486" id="H"/><g id="a"><use transform="matrix(0.00908203125,0,0,0.00908203125,0,0)" xlink:href="#y"/><use transform="matrix(0.008173828125000001,0,0,0.008173828125000001,10.834863281250001,0)" xlink:href="#z"/><use transform="matrix(0.008173828125000001,0,0,0.008173828125000001,14.889082031250002,0)" xlink:href="#A"/><use transform="matrix(0.008173828125000001,0,0,0.008173828125000001,24.779414062500003,0)" xlink:href="#B"/><use transform="matrix(0.008173828125000001,0,0,0.008173828125000001,30.092402343750006,0)" xlink:href="#C"/><use transform="matrix(0.008173828125000001,0,0,0.008173828125000001,39.851953125,0)" xlink:href="#D"/><use transform="matrix(0.008173828125000001,0,0,0.008173828125000001,46.415537109374995,0)" xlink:href="#E"/><use transform="matrix(0.008173828125000001,0,0,0.008173828125000001,52.349736328125,0)" xlink:href="#F"/><use transform="matrix(0.008173828125000001,0,0,0.008173828125000001,61.749638671875,0)" xlink:href="#G"/><use transform="matrix(0.008173828125000001,0,0,0.008173828125000001,71.313017578125,0)" xlink:href="#C"/><use transform="matrix(0.008173828125000001,0,0,0.008173828125000001,81.072568359375,0)" xlink:href="#H"/></g><path fill="#333" d="M128 0v-1118h300V0H128zm150-1264c-91 0-165-68-165-154 0-85 74-154 165-154 90 0 165 69 165 154 0 86-75 154-165 154" id="I"/><path fill="#333" d="M428-647V0H128v-1118h283l4 231c63-156 176-245 348-245 232 0 384 159 384 421V0H847v-659c0-139-76-222-202-222-128 0-217 86-217 234" id="J"/><path fill="#333" d="M683-1118v229H474v562c0 71 29 104 102 104 23 0 73-7 95-13l43 225C647 9 580 16 520 16 296 16 174-96 174-301v-588H20v-229h154v-266h300v266h209" id="K"/><path fill="#333" d="M633 22C291 22 81-200 81-553c0-345 210-579 537-579 292 0 525 185 525 567v84H378c7 183 109 277 260 277 105 0 184-46 216-132l272 51C1071-99 893 22 633 22zM380-669h474c-15-146-94-237-233-237-143 0-229 99-241 237" id="L"/><path fill="#333" d="M128 0v-1118h290v195h12c54-169 184-238 367-200v268c-27-8-86-15-130-15-138 0-239 95-239 234V0H128" id="M"/><path fill="#333" d="M750-1118v229H516V0H217v-889H20v-229h197v-86c0-238 156-356 363-356 94 0 178 20 215 31l-54 226c-25-7-61-15-100-15-123-3-131 84-125 200h234" id="N"/><path fill="#333" d="M440 22C227 22 68-92 68-313c0-250 202-322 422-343 195-21 271-24 271-105 0-95-63-149-175-149-116 0-187 57-211 129l-275-46c57-194 237-305 487-305 240 0 474 108 474 379V0H777v-155h-10C713-51 605 22 440 22zm85-211c140 0 238-93 238-211v-121c-37 26-156 42-222 51-111 16-185 59-185 149 0 87 70 132 169 132" id="O"/><path fill="#333" d="M628 22C291 22 81-210 81-554c0-346 210-578 547-578 265 0 455 142 497 372l-279 52c-25-116-99-188-215-188-160 0-244 139-244 341 0 200 84 341 244 341 116 0 193-74 217-195l279 51C1085-123 896 22 628 22" id="P"/><path fill="#333" d="M49 0l509-1490h400L1480 0h-339l-115-346H497L386 0H49zm524-585h374c-75-213-124-402-192-666-66 268-110 453-182 666" id="Q"/><path fill="#333" d="M428-1490V0H128v-1490h300" id="R"/><path fill="#333" d="M754 19C571 19 479-89 437-179h-14V0H128v-1490h300v560h9c41-89 129-202 319-202 248 0 453 193 453 575 0 372-197 576-455 576zm-92-241c156 0 240-139 240-336 0-196-83-334-240-334-154 0-241 131-241 334 0 202 88 336 241 336" id="S"/><path fill="#333" d="M513 14c-232 0-385-159-385-421v-711h300v659c0 139 76 222 202 222 127 0 217-86 217-234v-647h301V0H864l-4-232C797-74 683 14 513 14" id="T"/><path fill="#333" d="M128 0v-1118h278l12 217c60-163 185-234 319-234 143 0 236 81 288 251 63-172 205-251 359-251 205 0 357 138 357 381V0h-301v-697c0-126-76-187-177-187-114 0-184 79-184 196V0H789v-705c0-109-72-179-174-179-106 0-187 74-187 208V0H128" id="U"/><g id="b"><use transform="matrix(0.008173828125000001,0,0,0.008173828125000001,0,0)" xlink:href="#I"/><use transform="matrix(0.008173828125000001,0,0,0.008173828125000001,4.536474609375,0)" xlink:href="#J"/><use transform="matrix(0.008173828125000001,0,0,0.008173828125000001,14.958105468750002,0)" xlink:href="#K"/><use transform="matrix(0.008173828125000001,0,0,0.008173828125000001,20.925000000000004,0)" xlink:href="#L"/><use transform="matrix(0.008173828125000001,0,0,0.008173828125000001,30.897070312500006,0)" xlink:href="#M"/><use transform="matrix(0.008173828125000001,0,0,0.008173828125000001,38.04099609375,0)" xlink:href="#N"/><use transform="matrix(0.008173828125000001,0,0,0.008173828125000001,44.375712890625,0)" xlink:href="#O"/><use transform="matrix(0.008173828125000001,0,0,0.008173828125000001,54.09439453125,0)" xlink:href="#P"/><use transform="matrix(0.008173828125000001,0,0,0.008173828125000001,63.943857421875,0)" xlink:href="#L"/><use transform="matrix(0.008173828125000001,0,0,0.008173828125000001,73.35193359375,0)" xlink:href="#Q"/><use transform="matrix(0.008173828125000001,0,0,0.008173828125000001,85.849716796875,0)" xlink:href="#R"/><use transform="matrix(0.008173828125000001,0,0,0.008173828125000001,90.38619140625,0)" xlink:href="#S"/><use transform="matrix(0.008173828125000001,0,0,0.008173828125000001,100.93860351562499,0)" xlink:href="#T"/><use transform="matrix(0.008173828125000001,0,0,0.008173828125000001,111.360234375,0)" xlink:href="#U"/></g><path d="M49 0l509-1490h400L1480 0h-339l-115-346H497L386 0H49zm524-585h374c-75-213-124-402-192-666-66 268-110 453-182 666" id="V"/><path d="M428-1490V0H128v-1490h300" id="W"/><path d="M754 19C571 19 479-89 437-179h-14V0H128v-1490h300v560h9c41-89 129-202 319-202 248 0 453 193 453 575 0 372-197 576-455 576zm-92-241c156 0 240-139 240-336 0-196-83-334-240-334-154 0-241 131-241 334 0 202 88 336 241 336" id="X"/><path d="M513 14c-232 0-385-159-385-421v-711h300v659c0 139 76 222 202 222 127 0 217-86 217-234v-647h301V0H864l-4-232C797-74 683 14 513 14" id="Y"/><path d="M128 0v-1118h278l12 217c60-163 185-234 319-234 143 0 236 81 288 251 63-172 205-251 359-251 205 0 357 138 357 381V0h-301v-697c0-126-76-187-177-187-114 0-184 79-184 196V0H789v-705c0-109-72-179-174-179-106 0-187 74-187 208V0H128" id="Z"/><g id="c"><use transform="matrix(0.010850694444444444,0,0,0.010850694444444444,0,0)" xlink:href="#V"/><use transform="matrix(0.010850694444444444,0,0,0.010850694444444444,16.590711805555554,0)" xlink:href="#W"/><use transform="matrix(0.010850694444444444,0,0,0.010850694444444444,22.61284722222222,0)" xlink:href="#X"/><use transform="matrix(0.010850694444444444,0,0,0.010850694444444444,36.62109375,0)" xlink:href="#Y"/><use transform="matrix(0.010850694444444444,0,0,0.010850694444444444,50.455729166666664,0)" xlink:href="#Z"/></g><path d="M798-719v166H144v-166h654" id="aa"/><path d="M598-1118v154H368v674c0 100 37 144 132 144 23 0 62-6 92-12L629-6c-37 13-88 20-134 20-193 0-307-107-307-290v-688H20v-154h168v-266h180v266h230" id="ab"/><path d="M158 0v-1118h180V0H158zm91-1301c-68 0-125-53-125-119s57-119 125-119c69 0 126 53 126 119s-57 119-126 119" id="ac"/><path d="M338-1490V0H158v-1490h180" id="ad"/><path d="M628 24c-324 0-524-230-524-574 0-343 198-582 503-582 237 0 487 146 487 559v75H286c9 234 145 362 343 362 132 0 231-58 273-172l174 48C1024-91 857 24 628 24zM287-650h624c-17-190-120-322-304-322-192 0-309 151-320 322" id="ae"/><g id="d"><use transform="matrix(0.010416666666666668,0,0,0.010416666666666668,0,0)" xlink:href="#aa"/><use transform="matrix(0.010416666666666668,0,0,0.010416666666666668,9.812500000000002,0)" xlink:href="#ab"/><use transform="matrix(0.010416666666666668,0,0,0.010416666666666668,16.79166666666667,0)" xlink:href="#ac"/><use transform="matrix(0.010416666666666668,0,0,0.010416666666666668,21.95833333333334,0)" xlink:href="#ab"/><use transform="matrix(0.010416666666666668,0,0,0.010416666666666668,28.937500000000007,0)" xlink:href="#ad"/><use transform="matrix(0.010416666666666668,0,0,0.010416666666666668,34.10416666666667,0)" xlink:href="#ae"/></g><path d="M295 13c-75 0-135-60-135-135s60-135 135-135 135 60 135 135S370 13 295 13zm0-809c-75 0-135-60-135-135s60-135 135-135 135 60 135 135-60 135-135 135" id="af"/><use transform="matrix(0.010416666666666668,0,0,0.010416666666666668,0,0)" xlink:href="#af" id="e"/><path d="M538 24C308 24 148-78 108-271l171-41c32 123 123 178 257 178 156 0 256-77 256-169 0-77-54-128-164-154l-186-44c-203-48-300-148-300-305 0-192 176-326 414-326 230 0 351 112 402 269l-163 42c-31-80-94-158-238-158-133 0-233 69-233 162 0 83 57 129 188 160l169 40c203 48 298 149 298 302 0 196-179 339-441 339" id="ag"/><path d="M158 0v-1118h174v172h12c41-113 157-188 290-188 26 0 70 2 91 3v181c-11-2-60-10-108-10-161 0-279 109-279 260V0H158" id="ah"/><g id="f"><use transform="matrix(0.010416666666666668,0,0,0.010416666666666668,0,0)" xlink:href="#ag"/><use transform="matrix(0.010416666666666668,0,0,0.010416666666666668,11.260416666666668,0)" xlink:href="#ab"/><use transform="matrix(0.010416666666666668,0,0,0.010416666666666668,18.239583333333336,0)" xlink:href="#ah"/></g><path d="M611 442c-248 0-391-105-460-228l146-94c47 65 117 165 314 165 178 0 307-82 307-266v-224h-17C863-141 792-18 576-18c-268 0-472-195-472-546 0-346 197-568 476-568 216 0 288 133 326 193h17v-179h175V29c0 289-215 413-487 413zm-5-620c203 0 314-146 314-390 0-237-108-403-314-403-213 0-319 180-319 403 0 230 109 390 319 390" id="ai"/><path d="M338-670V0H158v-1118h173l1 207c72-158 192-221 342-221 226 0 378 139 378 422V0H872v-695c0-172-96-275-252-275-161 0-282 109-282 300" id="aj"/><g id="g"><use transform="matrix(0.010416666666666668,0,0,0.010416666666666668,0,0)" xlink:href="#aa"/><use transform="matrix(0.010416666666666668,0,0,0.010416666666666668,9.812500000000002,0)" xlink:href="#ai"/><use transform="matrix(0.010416666666666668,0,0,0.010416666666666668,22.895833333333336,0)" xlink:href="#ae"/><use transform="matrix(0.010416666666666668,0,0,0.010416666666666668,35.333333333333336,0)" xlink:href="#aj"/><use transform="matrix(0.010416666666666668,0,0,0.010416666666666668,47.93749999999999,0)" xlink:href="#ah"/><use transform="matrix(0.010416666666666668,0,0,0.010416666666666668,55.61458333333334,0)" xlink:href="#ae"/></g><path d="M471 26C259 26 90-98 90-318c0-256 228-303 435-329 202-27 287-16 287-108 0-139-79-219-234-219-161 0-248 86-283 164l-173-57c86-203 278-265 451-265 150 0 419 46 419 395V0H815v-152h-12C765-73 660 26 471 26zm31-159c199 0 310-134 310-271v-155c-30 35-226 55-295 64-131 17-246 59-246 186 0 116 97 176 231 176" id="ak"/><g id="h"><use transform="matrix(0.010416666666666668,0,0,0.010416666666666668,0,0)" xlink:href="#aa"/><use transform="matrix(0.010416666666666668,0,0,0.010416666666666668,9.812500000000002,0)" xlink:href="#ak"/><use transform="matrix(0.010416666666666668,0,0,0.010416666666666668,21.791666666666668,0)" xlink:href="#ah"/><use transform="matrix(0.010416666666666668,0,0,0.010416666666666668,30.156250000000007,0)" xlink:href="#ab"/><use transform="matrix(0.010416666666666668,0,0,0.010416666666666668,37.13541666666667,0)" xlink:href="#ac"/><use transform="matrix(0.010416666666666668,0,0,0.010416666666666668,42.302083333333336,0)" xlink:href="#ag"/><use transform="matrix(0.010416666666666668,0,0,0.010416666666666668,53.5625,0)" xlink:href="#ab"/></g><g id="i"><use transform="matrix(0.010416666666666668,0,0,0.010416666666666668,0,0)" xlink:href="#ac"/><use transform="matrix(0.010416666666666668,0,0,0.010416666666666668,5.166666666666667,0)" xlink:href="#aj"/><use transform="matrix(0.010416666666666668,0,0,0.010416666666666668,17.770833333333336,0)" xlink:href="#ab"/></g><path d="M645 0H180v-1490h484c435 0 692 280 692 742 0 466-257 748-711 748zM370-168h263c363 0 539-218 539-580 0-358-176-574-521-574H370v1154" id="al"/><g id="j"><use transform="matrix(0.010416666666666668,0,0,0.010416666666666668,0,0)" xlink:href="#aa"/><use transform="matrix(0.010416666666666668,0,0,0.010416666666666668,9.812500000000002,0)" xlink:href="#ah"/><use transform="matrix(0.010416666666666668,0,0,0.010416666666666668,17.489583333333336,0)" xlink:href="#ae"/><use transform="matrix(0.010416666666666668,0,0,0.010416666666666668,29.927083333333336,0)" xlink:href="#ad"/><use transform="matrix(0.010416666666666668,0,0,0.010416666666666668,35.09375,0)" xlink:href="#ae"/><use transform="matrix(0.010416666666666668,0,0,0.010416666666666668,47.739583333333336,0)" xlink:href="#ak"/><use transform="matrix(0.010416666666666668,0,0,0.010416666666666668,59.71875,0)" xlink:href="#ag"/><use transform="matrix(0.010416666666666668,0,0,0.010416666666666668,70.97916666666667,0)" xlink:href="#ae"/><use transform="matrix(0.010416666666666668,0,0,0.010416666666666668,83.41666666666667,0)" xlink:href="#al"/><use transform="matrix(0.010416666666666668,0,0,0.010416666666666668,98.81249999999999,0)" xlink:href="#ak"/><use transform="matrix(0.010416666666666668,0,0,0.010416666666666668,110.79166666666669,0)" xlink:href="#ab"/><use transform="matrix(0.010416666666666668,0,0,0.010416666666666668,117.56250000000001,0)" xlink:href="#ae"/></g><path d="M593-100v-404H195v-159h398v-403h169v403h398v159H762v404H593" id="am"/><path d="M174-520v-126l944-476v196L406-588v12l712 338v194" id="an"/><path d="M1181-520L237-44v-194l712-338v-12L237-926v-196l944 476v126" id="ao"/><g id="k"><use transform="matrix(0.010416666666666668,0,0,0.010416666666666668,0,0)" xlink:href="#am"/><use transform="matrix(0.010416666666666668,0,0,0.010416666666666668,14.114583333333336,0)" xlink:href="#an"/><use transform="matrix(0.010416666666666668,0,0,0.010416666666666668,28.22916666666667,0)" xlink:href="#an"/><use transform="matrix(0.010416666666666668,0,0,0.010416666666666668,42.34375000000001,0)" xlink:href="#ag"/><use transform="matrix(0.010416666666666668,0,0,0.010416666666666668,53.60416666666667,0)" xlink:href="#ae"/><use transform="matrix(0.010416666666666668,0,0,0.010416666666666668,66.04166666666667,0)" xlink:href="#ab"/><use transform="matrix(0.010416666666666668,0,0,0.010416666666666668,72.50000000000001,0)" xlink:href="#ab"/><use transform="matrix(0.010416666666666668,0,0,0.010416666666666668,79.27083333333336,0)" xlink:href="#ae"/><use transform="matrix(0.010416666666666668,0,0,0.010416666666666668,91.70833333333336,0)" xlink:href="#ah"/><use transform="matrix(0.010416666666666668,0,0,0.010416666666666668,99.73958333333336,0)" xlink:href="#ao"/><use transform="matrix(0.010416666666666668,0,0,0.010416666666666668,113.85416666666669,0)" xlink:href="#ao"/></g><g id="l"><use transform="matrix(0.010416666666666668,0,0,0.010416666666666668,0,0)" xlink:href="#ab"/><use transform="matrix(0.010416666666666668,0,0,0.010416666666666668,6.979166666666668,0)" xlink:href="#ac"/><use transform="matrix(0.010416666666666668,0,0,0.010416666666666668,12.145833333333334,0)" xlink:href="#ab"/><use transform="matrix(0.010416666666666668,0,0,0.010416666666666668,19.125000000000004,0)" xlink:href="#ad"/><use transform="matrix(0.010416666666666668,0,0,0.010416666666666668,24.291666666666668,0)" xlink:href="#ae"/></g><path d="M180 0v-1490h224l606 953c40 63 108 177 176 312-27-437-7-821-13-1265h190V0h-226C860-448 622-778 356-1262c27 476 11 792 15 1262H180" id="ap"/><path d="M613 24c-304 0-509-231-509-576 0-350 205-580 509-580 305 0 511 230 511 580 0 345-206 576-511 576zm0-161c226 0 329-195 329-415 0-222-103-419-329-419-223 0-326 196-326 419 0 220 103 415 326 415" id="aq"/><g id="m"><use transform="matrix(0.010416666666666668,0,0,0.010416666666666668,0,0)" xlink:href="#ap"/><use transform="matrix(0.010416666666666668,0,0,0.010416666666666668,16.072916666666668,0)" xlink:href="#aq"/><use transform="matrix(0.010416666666666668,0,0,0.010416666666666668,28.864583333333336,0)" xlink:href="#aj"/><use transform="matrix(0.010416666666666668,0,0,0.010416666666666668,41.46875,0)" xlink:href="#ae"/></g><g id="n"><use transform="matrix(0.010416666666666668,0,0,0.010416666666666668,0,0)" xlink:href="#ai"/><use transform="matrix(0.010416666666666668,0,0,0.010416666666666668,13.083333333333334,0)" xlink:href="#ae"/><use transform="matrix(0.010416666666666668,0,0,0.010416666666666668,25.520833333333336,0)" xlink:href="#aj"/><use transform="matrix(0.010416666666666668,0,0,0.010416666666666668,38.125,0)" xlink:href="#ah"/><use transform="matrix(0.010416666666666668,0,0,0.010416666666666668,45.802083333333336,0)" xlink:href="#ae"/></g><g id="o"><use transform="matrix(0.010416666666666668,0,0,0.010416666666666668,0,0)" xlink:href="#ah"/><use transform="matrix(0.010416666666666668,0,0,0.010416666666666668,7.677083333333336,0)" xlink:href="#ae"/><use transform="matrix(0.010416666666666668,0,0,0.010416666666666668,20.114583333333336,0)" xlink:href="#ad"/><use transform="matrix(0.010416666666666668,0,0,0.010416666666666668,25.281250000000004,0)" xlink:href="#ae"/><use transform="matrix(0.010416666666666668,0,0,0.010416666666666668,37.927083333333336,0)" xlink:href="#ak"/><use transform="matrix(0.010416666666666668,0,0,0.010416666666666668,49.90624999999999,0)" xlink:href="#ag"/><use transform="matrix(0.010416666666666668,0,0,0.010416666666666668,61.16666666666667,0)" xlink:href="#ae"/><use transform="matrix(0.010416666666666668,0,0,0.010416666666666668,73.60416666666667,0)" xlink:href="#al"/><use transform="matrix(0.010416666666666668,0,0,0.010416666666666668,88.99999999999999,0)" xlink:href="#ak"/><use transform="matrix(0.010416666666666668,0,0,0.010416666666666668,100.97916666666667,0)" xlink:href="#ab"/><use transform="matrix(0.010416666666666668,0,0,0.010416666666666668,107.75000000000001,0)" xlink:href="#ae"/></g><g id="p"><use transform="matrix(0.010416666666666668,0,0,0.010416666666666668,0,0)" xlink:href="#am"/><use transform="matrix(0.010416666666666668,0,0,0.010416666666666668,14.114583333333336,0)" xlink:href="#an"/><use transform="matrix(0.010416666666666668,0,0,0.010416666666666668,28.22916666666667,0)" xlink:href="#an"/><use transform="matrix(0.010416666666666668,0,0,0.010416666666666668,42.34375000000001,0)" xlink:href="#ai"/><use transform="matrix(0.010416666666666668,0,0,0.010416666666666668,55.42708333333334,0)" xlink:href="#ae"/><use transform="matrix(0.010416666666666668,0,0,0.010416666666666668,67.86458333333334,0)" xlink:href="#ab"/><use transform="matrix(0.010416666666666668,0,0,0.010416666666666668,74.32291666666669,0)" xlink:href="#ab"/><use transform="matrix(0.010416666666666668,0,0,0.010416666666666668,81.09375000000003,0)" xlink:href="#ae"/><use transform="matrix(0.010416666666666668,0,0,0.010416666666666668,93.53125000000003,0)" xlink:href="#ah"/><use transform="matrix(0.010416666666666668,0,0,0.010416666666666668,101.56250000000003,0)" xlink:href="#ao"/><use transform="matrix(0.010416666666666668,0,0,0.010416666666666668,115.67708333333337,0)" xlink:href="#ao"/></g><g id="q"><use transform="matrix(0.010416666666666668,0,0,0.010416666666666668,0,0)" xlink:href="#ak"/><use transform="matrix(0.010416666666666668,0,0,0.010416666666666668,11.979166666666668,0)" xlink:href="#ah"/><use transform="matrix(0.010416666666666668,0,0,0.010416666666666668,20.343750000000004,0)" xlink:href="#ab"/><use transform="matrix(0.010416666666666668,0,0,0.010416666666666668,27.32291666666667,0)" xlink:href="#ac"/><use transform="matrix(0.010416666666666668,0,0,0.010416666666666668,32.489583333333336,0)" xlink:href="#ag"/><use transform="matrix(0.010416666666666668,0,0,0.010416666666666668,43.74999999999999,0)" xlink:href="#ab"/></g><g id="r"><use transform="matrix(0.010416666666666668,0,0,0.010416666666666668,0,0)" xlink:href="#ag"/><use transform="matrix(0.010416666666666668,0,0,0.010416666666666668,11.260416666666668,0)" xlink:href="#ab"/><use transform="matrix(0.010416666666666668,0,0,0.010416666666666668,18.239583333333336,0)" xlink:href="#ah"/></g><g id="s"><use transform="matrix(0.00908203125,0,0,0.00908203125,0,0)" xlink:href="#y"/><use transform="matrix(0.008173828125000001,0,0,0.008173828125000001,10.834863281250001,0)" xlink:href="#z"/><use transform="matrix(0.008173828125000001,0,0,0.008173828125000001,14.889082031250002,0)" xlink:href="#A"/><use transform="matrix(0.008173828125000001,0,0,0.008173828125000001,24.779414062500003,0)" xlink:href="#B"/><use transform="matrix(0.008173828125000001,0,0,0.008173828125000001,30.092402343750006,0)" xlink:href="#C"/><use transform="matrix(0.008173828125000001,0,0,0.008173828125000001,39.851953125,0)" xlink:href="#D"/><use transform="matrix(0.008173828125000001,0,0,0.008173828125000001,46.415537109374995,0)" xlink:href="#E"/><use transform="matrix(0.008173828125000001,0,0,0.008173828125000001,52.349736328125,0)" xlink:href="#F"/><use transform="matrix(0.008173828125000001,0,0,0.008173828125000001,61.749638671875,0)" xlink:href="#G"/><use transform="matrix(0.008173828125000001,0,0,0.008173828125000001,71.313017578125,0)" xlink:href="#C"/><use transform="matrix(0.008173828125000001,0,0,0.008173828125000001,81.072568359375,0)" xlink:href="#H"/></g><path fill="#333" d="M135 0v-1490h468l242 684c30 94 76 293 111 455 34-161 80-360 110-455l238-684h470V0h-307c0-447-3-765 11-1227-122 503-246 788-395 1227H826C676-435 552-717 427-1215c15 453 11 775 11 1215H135" id="ar"/><path fill="#333" d="M572 22C302 22 117-98 78-306l279-48c29 105 101 156 224 156 114 0 185-48 185-115 0-118-228-130-337-155-215-49-322-150-322-317 0-215 187-347 470-347 265 0 424 116 466 298l-266 47c-24-76-87-130-196-130-98 0-174 46-174 113 0 56 38 95 144 117l201 40c216 44 320 143 320 302 0 220-207 367-500 367" id="as"/><g id="t"><use transform="matrix(0.008173828125000001,0,0,0.008173828125000001,0,0)" xlink:href="#I"/><use transform="matrix(0.008173828125000001,0,0,0.008173828125000001,4.536474609375,0)" xlink:href="#J"/><use transform="matrix(0.008173828125000001,0,0,0.008173828125000001,14.958105468750002,0)" xlink:href="#K"/><use transform="matrix(0.008173828125000001,0,0,0.008173828125000001,20.925000000000004,0)" xlink:href="#L"/><use transform="matrix(0.008173828125000001,0,0,0.008173828125000001,30.897070312500006,0)" xlink:href="#M"/><use transform="matrix(0.008173828125000001,0,0,0.008173828125000001,38.04099609375,0)" xlink:href="#N"/><use transform="matrix(0.008173828125000001,0,0,0.008173828125000001,44.375712890625,0)" xlink:href="#O"/><use transform="matrix(0.008173828125000001,0,0,0.008173828125000001,54.09439453125,0)" xlink:href="#P"/><use transform="matrix(0.008173828125000001,0,0,0.008173828125000001,63.943857421875,0)" xlink:href="#L"/><use transform="matrix(0.008173828125000001,0,0,0.008173828125000001,73.915927734375,0)" xlink:href="#ar"/><use transform="matrix(0.008173828125000001,0,0,0.008173828125000001,89.51159179687501,0)" xlink:href="#T"/><use transform="matrix(0.008173828125000001,0,0,0.008173828125000001,99.93322265625001,0)" xlink:href="#as"/><use transform="matrix(0.008173828125000001,0,0,0.008173828125000001,109.30860351562501,0)" xlink:href="#I"/><use transform="matrix(0.008173828125000001,0,0,0.008173828125000001,113.84507812500001,0)" xlink:href="#P"/></g><path d="M135 0v-1490h468l242 684c30 94 76 293 111 455 34-161 80-360 110-455l238-684h470V0h-307c0-447-3-765 11-1227-122 503-246 788-395 1227H826C676-435 552-717 427-1215c15 453 11 775 11 1215H135" id="at"/><path d="M572 22C302 22 117-98 78-306l279-48c29 105 101 156 224 156 114 0 185-48 185-115 0-118-228-130-337-155-215-49-322-150-322-317 0-215 187-347 470-347 265 0 424 116 466 298l-266 47c-24-76-87-130-196-130-98 0-174 46-174 113 0 56 38 95 144 117l201 40c216 44 320 143 320 302 0 220-207 367-500 367" id="au"/><path d="M128 0v-1118h300V0H128zm150-1264c-91 0-165-68-165-154 0-85 74-154 165-154 90 0 165 69 165 154 0 86-75 154-165 154" id="av"/><path d="M628 22C291 22 81-210 81-554c0-346 210-578 547-578 265 0 455 142 497 372l-279 52c-25-116-99-188-215-188-160 0-244 139-244 341 0 200 84 341 244 341 116 0 193-74 217-195l279 51C1085-123 896 22 628 22" id="aw"/><g id="u"><use transform="matrix(0.010850694444444444,0,0,0.010850694444444444,0,0)" xlink:href="#at"/><use transform="matrix(0.010850694444444444,0,0,0.010850694444444444,20.703125,0)" xlink:href="#Y"/><use transform="matrix(0.010850694444444444,0,0,0.010850694444444444,34.537760416666664,0)" xlink:href="#au"/><use transform="matrix(0.010850694444444444,0,0,0.010850694444444444,46.98350694444444,0)" xlink:href="#av"/><use transform="matrix(0.010850694444444444,0,0,0.010850694444444444,53.00564236111111,0)" xlink:href="#aw"/></g><path d="M677 24c-213 0-288-135-325-197h-20V0H158v-1490h180v551h14c37-59 106-193 324-193 279 0 474 222 474 576 0 356-194 580-473 580zm-27-161c209 0 317-186 317-421 0-232-105-413-317-413-206 0-314 166-314 413 0 249 111 421 314 421" id="ax"/><path d="M537 14c-226 0-379-139-379-422v-710h180v695c0 172 97 275 253 275 160 0 281-109 281-300v-670h181V0H879v-209C806-46 684 14 537 14" id="ay"/><path d="M158 0v-1118h175l1 205c55-151 181-225 313-225 147 0 245 90 285 228 53-141 190-228 352-228 194 0 352 125 352 384V0h-181v-749c0-161-105-225-225-225-151 0-243 103-243 244V0H807v-767c0-124-93-207-219-207-131 0-250 92-250 270V0H158" id="az"/><g id="v"><use transform="matrix(0.010416666666666668,0,0,0.010416666666666668,0,0)" xlink:href="#aa"/><use transform="matrix(0.010416666666666668,0,0,0.010416666666666668,9.812500000000002,0)" xlink:href="#ak"/><use transform="matrix(0.010416666666666668,0,0,0.010416666666666668,21.791666666666668,0)" xlink:href="#ad"/><use transform="matrix(0.010416666666666668,0,0,0.010416666666666668,26.958333333333343,0)" xlink:href="#ax"/><use transform="matrix(0.010416666666666668,0,0,0.010416666666666668,40.02083333333334,0)" xlink:href="#ay"/><use transform="matrix(0.010416666666666668,0,0,0.010416666666666668,52.63541666666668,0)" xlink:href="#az"/></g><g id="w"><use transform="matrix(0.010416666666666668,0,0,0.010416666666666668,0,0)" xlink:href="#ak"/><use transform="matrix(0.010416666666666668,0,0,0.010416666666666668,11.979166666666668,0)" xlink:href="#ad"/><use transform="matrix(0.010416666666666668,0,0,0.010416666666666668,17.145833333333336,0)" xlink:href="#ax"/><use transform="matrix(0.010416666666666668,0,0,0.010416666666666668,30.208333333333336,0)" xlink:href="#ay"/><use transform="matrix(0.010416666666666668,0,0,0.010416666666666668,42.82291666666667,0)" xlink:href="#az"/></g><g id="x"><use transform="matrix(0.010416666666666668,0,0,0.010416666666666668,0,0)" xlink:href="#ac"/><use transform="matrix(0.010416666666666668,0,0,0.010416666666666668,5.166666666666667,0)" xlink:href="#aj"/><use transform="matrix(0.010416666666666668,0,0,0.010416666666666668,17.770833333333336,0)" xlink:href="#ab"/></g></defs></g></svg>